<?xml version="1.0" encoding="utf-8"?>
<!-- Generator: Adobe Illustrator 16.0.0, SVG Export Plug-In . SVG Version: 6.00 Build 0)  -->
<!DOCTYPE svg PUBLIC "-//W3C//DTD SVG 1.1//EN" "http://www.w3.org/Graphics/SVG/1.1/DTD/svg11.dtd">
<svg version="1.1" id="레이어_1" xmlns="http://www.w3.org/2000/svg" xmlns:xlink="http://www.w3.org/1999/xlink" x="0px"
	 y="0px" width="48px" height="48px" viewBox="0 0 48 48" enable-background="new 0 0 48 48" xml:space="preserve">
<g>
	<path fill="#381F1F" d="M24,11c-8.836,0-16,5.648-16,12.615c0,4.504,2.995,8.457,7.5,10.689c-0.245,0.845-1.575,5.438-1.628,5.798
		c0,0-0.032,0.271,0.144,0.374c0.175,0.104,0.382,0.023,0.382,0.023c0.503-0.07,5.837-3.816,6.761-4.468
		C22.081,36.163,23.03,36.23,24,36.23c8.836,0,16-5.647,16-12.615C40,16.648,32.836,11,24,11z M16.077,27.138
		c0,0.486-0.414,0.882-0.923,0.882s-0.923-0.396-0.923-0.882v-5.484h-1.44c-0.5,0-0.906-0.406-0.906-0.904s0.406-0.904,0.906-0.904
		h4.727c0.5,0,0.906,0.406,0.906,0.904s-0.406,0.904-0.906,0.904h-1.44V27.138z M23.834,27.88c-0.184,0.084-0.384,0.128-0.586,0.128
		c-0.385,0-0.68-0.156-0.768-0.408l-0.458-1.197h-2.814L18.75,27.6c-0.088,0.252-0.383,0.408-0.768,0.408
		c-0.203,0-0.403-0.044-0.587-0.128c-0.254-0.117-0.499-0.44-0.219-1.311l2.208-5.812c0.156-0.442,0.628-0.897,1.229-0.911
		c0.603,0.014,1.075,0.469,1.231,0.912l2.207,5.809C24.334,27.439,24.089,27.764,23.834,27.88z M28.5,27.885h-2.961
		c-0.488,0-0.885-0.38-0.885-0.846v-6.27c0-0.509,0.422-0.923,0.941-0.923s0.943,0.414,0.943,0.923v5.423H28.5
		c0.488,0,0.885,0.38,0.885,0.847C29.385,27.505,28.988,27.885,28.5,27.885z M35.607,27.529c-0.061,0.105-0.143,0.196-0.24,0.27
		c-0.159,0.121-0.354,0.187-0.555,0.186c-0.143,0.001-0.284-0.031-0.412-0.096c-0.129-0.063-0.239-0.156-0.325-0.271L31.91,24.75
		l-0.32,0.32v2.014c0,0.244-0.098,0.479-0.271,0.652c-0.173,0.174-0.407,0.271-0.653,0.271c-0.508,0-0.922-0.414-0.922-0.924V20.77
		c0-0.509,0.414-0.923,0.922-0.923c0.51,0,0.924,0.414,0.924,0.923v1.984l2.575-2.576c0.132-0.132,0.314-0.205,0.513-0.205
		c0.23,0,0.461,0.099,0.635,0.272c0.162,0.162,0.258,0.369,0.271,0.585c0.014,0.218-0.059,0.417-0.204,0.562l-2.104,2.104
		l2.272,3.01c0.073,0.097,0.127,0.207,0.157,0.324s0.037,0.239,0.021,0.359C35.709,27.31,35.67,27.426,35.607,27.529z"/>
	<polygon fill="#381F1F" points="19.693,24.768 21.537,24.768 20.615,22.148 	"/>
</g>
</svg>
