<?xml version="1.0" encoding="utf-8"?>
<!-- Generator: Adobe Illustrator 16.0.0, SVG Export Plug-In . SVG Version: 6.00 Build 0)  -->
<!DOCTYPE svg PUBLIC "-//W3C//DTD SVG 1.1//EN" "http://www.w3.org/Graphics/SVG/1.1/DTD/svg11.dtd">
<svg version="1.1" id="레이어_1" xmlns="http://www.w3.org/2000/svg" xmlns:xlink="http://www.w3.org/1999/xlink" x="0px"
	 y="0px" width="35px" height="35px" viewBox="6.5 6.5 35 35" enable-background="new 6.5 6.5 35 35" xml:space="preserve">
<g>
	<path fill="#381F1F" d="M24,9.235c-8.836,0-16,5.648-16,12.615c0,4.504,2.995,8.457,7.5,10.689
		c-0.245,0.844-1.575,5.438-1.628,5.797c0,0-0.032,0.271,0.144,0.375c0.175,0.104,0.382,0.022,0.382,0.022
		c0.503-0.069,5.837-3.815,6.761-4.468c0.922,0.132,1.871,0.199,2.841,0.199c8.836,0,16-5.647,16-12.615
		C40,14.883,32.836,9.235,24,9.235z M16.077,25.374c0,0.485-0.414,0.881-0.923,0.881c-0.509,0-0.923-0.396-0.923-0.881v-5.485h-1.44
		c-0.5,0-0.906-0.406-0.906-0.904s0.406-0.904,0.906-0.904h4.727c0.5,0,0.906,0.406,0.906,0.904s-0.406,0.904-0.906,0.904h-1.44
		L16.077,25.374L16.077,25.374z M23.834,26.115c-0.184,0.084-0.384,0.128-0.586,0.128c-0.385,0-0.68-0.156-0.768-0.408l-0.458-1.197
		h-2.814l-0.458,1.197c-0.088,0.252-0.383,0.408-0.768,0.408c-0.203,0-0.403-0.044-0.587-0.128c-0.254-0.116-0.499-0.44-0.219-1.312
		l2.208-5.812c0.156-0.442,0.628-0.897,1.229-0.911c0.603,0.014,1.075,0.469,1.231,0.912l2.207,5.809
		C24.334,25.675,24.089,25.999,23.834,26.115z M28.5,26.12h-2.961c-0.488,0-0.885-0.38-0.885-0.846v-6.27
		c0-0.509,0.422-0.923,0.941-0.923c0.518,0,0.942,0.414,0.942,0.923v5.422H28.5c0.488,0,0.885,0.381,0.885,0.848
		C29.385,25.74,28.988,26.12,28.5,26.12z M35.607,25.765c-0.062,0.104-0.144,0.195-0.24,0.27c-0.159,0.121-0.354,0.188-0.555,0.186
		c-0.144,0.002-0.285-0.03-0.412-0.096c-0.129-0.063-0.239-0.156-0.325-0.271l-2.165-2.868l-0.32,0.32v2.014
		c0,0.244-0.098,0.479-0.271,0.652c-0.172,0.174-0.406,0.271-0.652,0.271c-0.508,0-0.922-0.414-0.922-0.924v-6.313
		c0-0.509,0.414-0.923,0.922-0.923c0.51,0,0.924,0.414,0.924,0.923v1.984l2.575-2.576c0.132-0.132,0.313-0.205,0.513-0.205
		c0.23,0,0.461,0.099,0.635,0.272c0.162,0.162,0.258,0.369,0.271,0.585c0.014,0.218-0.059,0.417-0.204,0.562l-2.104,2.104
		l2.272,3.01c0.073,0.098,0.127,0.207,0.157,0.324c0.029,0.117,0.037,0.238,0.021,0.359C35.709,25.546,35.67,25.661,35.607,25.765z"
		/>
	<polygon fill="#381F1F" points="19.693,23.003 21.537,23.003 20.615,20.383 	"/>
</g>
</svg>
